<svg width="24" height="26" viewBox="0 0 24 26" fill="none" xmlns="http://www.w3.org/2000/svg">
<g clip-path="url(#clip0_702_63)">
<path d="M10.5069 0.325291C11.1348 -0.0372983 11.9526 -0.0389361 12.5799 0.325291C15.7361 2.1245 18.8932 3.92088 22.0488 5.72118C22.6423 6.05847 23.0394 6.72487 23.0333 7.41484V18.2395C23.0377 18.9581 22.6015 19.6404 21.9753 19.9701C18.8295 21.7593 15.6854 23.5508 12.5402 25.3401C11.8993 25.7098 11.065 25.6813 10.4442 25.2813C9.50109 24.7298 8.55636 24.1809 7.61317 23.6299C7.42044 23.514 7.20318 23.4217 7.06708 23.2332C7.18739 23.0696 7.40249 23.0492 7.57728 22.9778C7.97095 22.8515 8.33252 22.6488 8.69417 22.452C8.78562 22.3889 8.89728 22.4131 8.98494 22.4696C9.7914 22.9361 10.5907 23.4162 11.3999 23.8782C11.5725 23.9787 11.7473 23.8453 11.8949 23.7623C14.9818 22.0021 18.0726 20.2486 21.159 18.4879C21.2734 18.4324 21.3366 18.3099 21.3273 18.1835C21.3295 14.6127 21.3279 11.0412 21.3284 7.47034C21.3415 7.32694 21.2592 7.1951 21.1307 7.13641C17.9958 5.35531 14.8626 3.57148 11.7283 1.78993C11.674 1.75227 11.6097 1.73206 11.5438 1.73196C11.4779 1.73186 11.4135 1.75188 11.3591 1.78939C8.22474 3.57148 5.09205 5.35695 1.95773 7.13796C1.82966 7.19674 1.74371 7.3264 1.75895 7.47034C1.7595 11.0412 1.75895 14.6127 1.75895 18.184C1.75352 18.2457 1.76694 18.3076 1.79742 18.3613C1.8279 18.415 1.87396 18.4581 1.92941 18.4846C2.76582 18.9631 3.60331 19.4382 4.44026 19.9151C4.91176 20.1711 5.49068 20.3233 6.01016 20.1271C6.46859 19.9612 6.78993 19.4893 6.78119 18.9982C6.78551 15.4482 6.77902 11.8977 6.78443 8.34819C6.77298 8.1906 6.92116 8.0604 7.07303 8.07523C7.47491 8.0725 7.87734 8.06977 8.27921 8.07632C8.44696 8.0725 8.56241 8.24219 8.54166 8.40097C8.54004 11.9734 8.54599 15.546 8.53896 19.1185C8.54004 20.0706 8.15232 21.1066 7.27939 21.5725C6.20398 22.1345 4.87478 22.0153 3.81236 21.4764C2.89262 21.0132 2.01491 20.4667 1.11149 19.9705C0.48369 19.6427 0.0496135 18.9576 0.0540327 18.2396V7.41484C0.047449 6.71059 0.460241 6.03208 1.07226 5.6997C4.21749 3.90896 7.36218 2.11685 10.5069 0.325291Z" fill="#8CC84B"/>
<path d="M13.2513 7.82532C14.6231 7.73624 16.0916 7.77255 17.326 8.45433C18.2818 8.97678 18.8116 10.0733 18.8285 11.1445C18.8018 11.289 18.6521 11.3687 18.5153 11.3588C18.1173 11.3582 17.7192 11.3642 17.3212 11.356C17.1524 11.3626 17.0543 11.2055 17.0331 11.055C16.9187 10.5424 16.6417 10.0348 16.1635 9.78758C15.4295 9.4168 14.5783 9.43545 13.7779 9.44319C13.1936 9.47449 12.5653 9.52553 12.0702 9.8722C11.6902 10.1348 11.5747 10.6649 11.7104 11.0918C11.8382 11.3983 12.189 11.4972 12.476 11.5884C14.1291 12.0246 15.8809 11.9812 17.5025 12.5553C18.1739 12.7893 18.8306 13.2442 19.0604 13.9534C19.361 14.9039 19.2293 16.0399 18.559 16.803C18.0154 17.4309 17.2238 17.7726 16.4342 17.9582C15.3837 18.1945 14.2936 18.2005 13.2269 18.0956C12.2238 17.9803 11.18 17.7144 10.4056 17.0249C9.74344 16.4448 9.42002 15.541 9.45213 14.6687C9.45979 14.5214 9.60518 14.4187 9.74506 14.4308C10.1459 14.4275 10.5467 14.4264 10.9475 14.4313C11.1075 14.4198 11.2262 14.5594 11.2344 14.7116C11.3084 15.1999 11.4903 15.7125 11.9124 16.002C12.727 16.5322 13.7491 16.4959 14.6818 16.5107C15.4545 16.4761 16.322 16.4657 16.9526 15.9504C17.2853 15.6565 17.3838 15.1648 17.2939 14.7418C17.1965 14.3847 16.8262 14.2183 16.5082 14.1094C14.8762 13.5886 13.1048 13.7776 11.4887 13.1886C10.8326 12.9547 10.1981 12.5124 9.946 11.8324C9.59426 10.8699 9.75543 9.67939 10.496 8.94211C11.218 8.20875 12.2603 7.92632 13.2513 7.82523V7.82532Z" fill="#8CC84B"/>
</g>
<defs>
<clipPath id="clip0_702_63">
<rect width="23.0933" height="25.6587" fill="white"/>
</clipPath>
</defs>
</svg>
