<svg width="47" height="47" viewBox="0 0 47 47" fill="none" xmlns="http://www.w3.org/2000/svg">
<path d="M2.03477 7.29206C2.12606 7.04914 2.33662 6.86645 2.59594 6.80518L29.8249 0.371745C30.4558 0.222697 30.9968 0.826321 30.7558 1.41026L28.5541 6.74403C28.4583 6.97614 28.2526 7.14909 28.0019 7.20834L0.989198 13.5907C0.369397 13.7371 -0.168738 13.1553 0.0494632 12.5747L2.03477 7.29206Z" fill="#F7B843"/>
<path d="M31.408 0.00622236C31.41 0.0129327 31.4034 0.0190983 31.3966 0.016898C31.388 0.0141595 31.3885 0.00231204 31.3972 0.000248698C31.4019 -0.000848436 31.4066 0.00178165 31.408 0.00622236Z" fill="#F7B843"/>
<path d="M11.7306 8.97029C11.7306 8.54312 12.0882 8.19684 12.5292 8.19684H17.3209C17.762 8.19684 18.1196 8.54312 18.1196 8.97029V38.3613C18.1196 38.7885 17.762 39.1348 17.3209 39.1348H12.5292C12.0882 39.1348 11.7306 38.7885 11.7306 38.3613V8.97029Z" fill="#F7B843"/>
<path d="M24.3472 16.3651C24.3482 16.0174 24.5886 15.713 24.9348 15.6211L29.1848 14.4934C29.6882 14.3599 30.1864 14.7222 30.1944 15.2276L30.6484 44.1048C30.654 44.4573 30.4127 44.7689 30.0617 44.8624L25.2819 46.1354C24.7727 46.271 24.2702 45.8991 24.2716 45.3877L24.3472 16.3651Z" fill="#F7B843"/>
<path d="M46.6507 35.417C46.8717 34.829 46.3176 34.2435 45.6935 34.4054L24.9041 39.8004C24.4781 39.9109 24.2253 40.335 24.3394 40.7476L25.5796 45.2302C25.6937 45.6428 26.1317 45.8877 26.5577 45.7771L44.1062 41.2232C44.3579 41.1579 44.5609 40.9778 44.65 40.7406L46.6507 35.417Z" fill="#F7B843"/>
<path d="M46.8379 11.1732C47.0589 10.5852 46.5049 9.99962 45.8807 10.1616L25.1202 15.549C24.6941 15.6596 24.4413 16.0837 24.5555 16.4963L25.7957 20.9789C25.9098 21.3915 26.3477 21.6364 26.7738 21.5258L44.2935 16.9794C44.5451 16.914 44.7481 16.7339 44.8372 16.4968L46.8379 11.1732Z" fill="#F7B843"/>
<path d="M46.9505 23.0551C47.1715 22.4671 46.6175 21.8815 45.9933 22.0435L25.1202 27.4601C24.6941 27.5707 24.4413 27.9948 24.5555 28.4074L25.7957 32.89C25.9098 33.3026 26.3477 33.5474 26.7738 33.4369L44.406 28.8612C44.6577 28.7959 44.8607 28.6158 44.9498 28.3787L46.9505 23.0551Z" fill="#F7B843"/>
</svg>
